<svg width="228" height="72" viewBox="0 0 228 72" fill="none" xmlns="http://www.w3.org/2000/svg">
<path fill-rule="evenodd" clip-rule="evenodd" d="M111.654 0C114.302 0 117.002 0.60206 119.753 1.79689L117.641 7.02032C115.246 5.95185 113.184 5.41111 111.446 5.41111C110.555 5.41111 109.892 5.56163 109.485 5.87009C109.075 6.18227 108.875 6.5632 108.875 7.02032C108.875 7.51089 109.138 7.94757 109.649 8.33965C110.172 8.72616 111.58 9.436 113.873 10.4599C116.083 11.4336 117.611 12.4742 118.471 13.5854C119.327 14.7003 119.753 16.0996 119.753 17.7905C119.753 19.3422 119.352 20.7228 118.549 21.9214C117.752 23.1273 116.584 24.0639 115.063 24.7328C113.552 25.3981 111.774 25.7325 109.733 25.7325C108.03 25.7325 106.601 25.6173 105.449 25.3795C104.289 25.1472 103.093 24.7384 101.845 24.1568V18.1306C103.165 18.794 104.529 19.3087 105.952 19.6841C107.381 20.052 108.684 20.236 109.876 20.236C110.901 20.236 111.647 20.065 112.129 19.7175C112.608 19.3645 112.852 18.9203 112.852 18.3722C112.852 18.0284 112.747 17.7311 112.557 17.4747C112.364 17.2182 112.055 16.9581 111.631 16.6923C111.206 16.4322 110.067 15.8952 108.228 15.0831C106.559 14.3417 105.313 13.6189 104.478 12.9276C103.642 12.2289 103.026 11.4336 102.626 10.5305C102.221 9.62553 102.021 8.56078 102.021 7.32507C102.021 5.0246 102.879 3.22585 104.594 1.93626C106.305 0.646657 108.657 0 111.654 0ZM8.34198 0C10.7437 0 12.9965 0.445971 15.1102 1.33977L14.4616 2.84678C12.3403 1.97714 10.3106 1.54231 8.37631 1.54231C6.48587 1.54231 4.97886 1.9697 3.86291 2.82634C2.74314 3.68112 2.18231 4.84621 2.18231 6.32163C2.18231 7.24145 2.35399 8.00146 2.70308 8.59608C3.04073 9.18885 3.60729 9.71844 4.38941 10.1923C5.16962 10.668 6.51258 11.2404 8.40874 11.8982C10.3984 12.569 11.9016 13.2249 12.905 13.8604C13.9103 14.4941 14.6371 15.2151 15.1025 16.0178C15.5585 16.8224 15.7912 17.7924 15.7912 18.9371C15.7912 21.0257 15.011 22.6832 13.4391 23.9003C11.873 25.1249 9.78604 25.7325 7.18597 25.7325C4.06321 25.7325 1.66534 25.3943 0 24.7217V22.9731C1.84084 23.7368 4.19102 24.1233 7.04671 24.1233C9.13936 24.1233 10.8104 23.6551 12.037 22.713C13.2693 21.7653 13.8836 20.5314 13.8836 19.0021C13.8836 18.0581 13.6795 17.2721 13.275 16.6515C12.8649 16.029 12.2011 15.4622 11.2797 14.9456C10.3564 14.4346 9.00582 13.8772 7.22221 13.2844C4.60687 12.4092 2.80991 11.4578 1.81032 10.4357C0.814552 9.41184 0.312851 8.05163 0.312851 6.35137C0.312851 4.48015 1.06254 2.95456 2.56192 1.77459C4.0594 0.590911 5.98799 0 8.34198 0ZM215.49 0.358634V5.78461H207.228V9.72402H214.881V15.15H207.228V19.8736H215.49V25.3906H200.317V0.358634H215.49ZM144.979 0.358634V25.3906H138.03V0.358634H144.979ZM182.334 0.358634V5.88681H176.105V25.3906H169.2V5.88681H162.96V0.358634H182.334ZM69.0841 0.358634L76.5371 14.0555L84.0225 0.358634H85.9435L77.4299 15.7168V25.3906H75.5871V15.8543L67.0429 0.358634H69.0841ZM37.3071 0.358634V13.3717L40.1399 10.5974L50.1606 0.358634H52.4344L41.9598 10.9393L52.7149 25.3906H50.5287L40.7179 12.1732L37.3071 15.1147V25.3906H35.5254V0.358634H37.3071ZM221.888 0.0780445C222.329 0.0780445 222.745 0.163523 223.134 0.328903C223.525 0.494284 223.863 0.717269 224.16 0.992285C224.446 1.27287 224.679 1.60364 224.849 1.98457C225.019 2.36364 225.099 2.76688 225.099 3.19798C225.099 3.63094 225.019 4.03046 224.849 4.41139C224.679 4.78489 224.446 5.11008 224.16 5.38881C223.863 5.6694 223.525 5.89053 223.134 6.04848C222.745 6.20828 222.329 6.2919 221.888 6.2919C221.446 6.2919 221.028 6.20828 220.639 6.04848C220.249 5.89053 219.902 5.6694 219.618 5.38881C219.326 5.11008 219.092 4.78489 218.928 4.41139C218.754 4.03046 218.672 3.63094 218.672 3.19798C218.672 2.76688 218.754 2.36364 218.928 1.98457C219.092 1.60364 219.326 1.27287 219.618 0.992285C219.902 0.717269 220.249 0.494284 220.639 0.328903C221.028 0.163523 221.446 0.0780445 221.888 0.0780445ZM221.888 0.56118C221.505 0.56118 221.158 0.628075 220.829 0.767441C220.503 0.904949 220.215 1.09263 219.967 1.32862C219.725 1.56833 219.53 1.84892 219.391 2.16853C219.252 2.49 219.176 2.83006 219.176 3.19798C219.176 3.55847 219.252 3.89667 219.391 4.21814C219.53 4.53403 219.725 4.81834 219.967 5.05991C220.215 5.30333 220.503 5.49101 220.829 5.62852C221.158 5.76974 221.505 5.83664 221.888 5.83664C222.266 5.83664 222.611 5.76974 222.943 5.62852C223.269 5.49101 223.557 5.30333 223.803 5.05991C224.049 4.81834 224.24 4.53403 224.383 4.21814C224.519 3.89667 224.595 3.55847 224.595 3.19798C224.595 2.83006 224.519 2.49 224.383 2.16853C224.24 1.84892 224.049 1.56833 223.803 1.32862C223.557 1.09263 223.269 0.904949 222.943 0.767441C222.611 0.628075 222.266 0.56118 221.888 0.56118ZM221.9 1.42896C222.071 1.42896 222.233 1.44569 222.396 1.48099C222.554 1.51816 222.699 1.57576 222.827 1.65938C222.947 1.743 223.05 1.84892 223.13 1.97528C223.202 2.10164 223.241 2.26516 223.241 2.45841C223.241 2.71299 223.162 2.92482 223.012 3.08091C222.865 3.24072 222.659 3.35035 222.409 3.4061L223.384 4.9447H222.59L221.745 3.47671H221.28V4.9447H220.631V1.42896H221.9ZM221.871 1.96041H221.28V2.96756H221.802C221.985 2.96756 222.17 2.9304 222.338 2.86164C222.51 2.79289 222.59 2.65167 222.59 2.44355C222.59 2.25215 222.514 2.12394 222.359 2.05518C222.205 1.99386 222.043 1.96041 221.871 1.96041Z" fill="black"/>
<path d="M3.65865 63.4907H0.793442L9.08051 40.9217H11.9016L20.1887 63.4907H17.3235L10.5792 44.4922H10.4029L3.65865 63.4907ZM4.71657 54.6747H16.2656V57.0991H4.71657V54.6747ZM25.2134 63.4907V46.564H27.726V49.1206H27.9023C28.2108 48.2831 28.7692 47.6035 29.5773 47.0819C30.3855 46.5603 31.2965 46.2995 32.3103 46.2995C32.5013 46.2995 32.7401 46.3031 33.0266 46.3105C33.3131 46.3178 33.5298 46.3289 33.6768 46.3436V48.9884C33.5886 48.9663 33.3866 48.9333 33.0707 48.8892C32.7621 48.8378 32.4352 48.812 32.0899 48.812C31.2671 48.812 30.5324 48.9847 29.8859 49.33C29.2467 49.6679 28.7398 50.1381 28.3651 50.7405C27.9978 51.3356 27.8141 52.0152 27.8141 52.7793V63.4907H25.2134ZM44.9829 63.8434C43.396 63.8434 42.0295 63.4687 40.8834 62.7193C39.7374 61.97 38.8558 60.9377 38.2386 59.6227C37.6215 58.3076 37.313 56.8052 37.313 55.1155C37.313 53.3964 37.6289 51.8793 38.2607 50.5642C38.8998 49.2418 39.7888 48.2096 40.9275 47.4676C42.0736 46.7182 43.4107 46.3436 44.9388 46.3436C46.129 46.3436 47.2016 46.564 48.1567 47.0048C49.1117 47.4456 49.8942 48.0627 50.5039 48.8561C51.1137 49.6496 51.4921 50.5752 51.639 51.6332H49.0383C48.8399 50.8618 48.3991 50.1785 47.7159 49.5834C47.04 48.981 46.129 48.6798 44.9829 48.6798C43.9691 48.6798 43.0801 48.9443 42.316 49.4732C41.5593 49.9949 40.9679 50.7332 40.5418 51.6883C40.1231 52.636 39.9137 53.749 39.9137 55.0273C39.9137 56.335 40.1194 57.4738 40.5308 58.4435C40.9496 59.4133 41.5373 60.1663 42.294 60.7027C43.0581 61.239 43.9544 61.5071 44.9829 61.5071C45.6588 61.5071 46.2722 61.3896 46.8232 61.1545C47.3742 60.9194 47.8408 60.5814 48.2228 60.1406C48.6048 59.6998 48.8766 59.1709 49.0383 58.5537H51.639C51.4921 59.5529 51.1284 60.4529 50.548 61.2537C49.975 62.0471 49.2146 62.6789 48.2669 63.1491C47.3265 63.6119 46.2318 63.8434 44.9829 63.8434ZM59.9036 53.3082V63.4907H57.3028V40.9217H59.9036V49.2088H60.124C60.5207 48.3345 61.1158 47.6402 61.9092 47.126C62.71 46.6044 63.7753 46.3436 65.105 46.3436C66.2585 46.3436 67.2686 46.575 68.1355 47.0378C69.0024 47.4933 69.6747 48.1949 70.1522 49.1426C70.6371 50.083 70.8795 51.2805 70.8795 52.7352V63.4907H68.2788V52.9115C68.2788 51.567 67.9298 50.5275 67.2319 49.7928C66.5413 49.0508 65.5826 48.6798 64.3557 48.6798C63.5035 48.6798 62.7394 48.8598 62.0635 49.2198C61.395 49.5798 60.866 50.1051 60.4766 50.7956C60.0946 51.4862 59.9036 52.3238 59.9036 53.3082ZM77.4994 63.4907V46.564H80.1001V63.4907H77.4994ZM78.8218 43.7428C78.3149 43.7428 77.8777 43.5702 77.5104 43.2249C77.1504 42.8796 76.9704 42.4645 76.9704 41.9796C76.9704 41.4947 77.1504 41.0796 77.5104 40.7344C77.8777 40.3891 78.3149 40.2164 78.8218 40.2164C79.3287 40.2164 79.7621 40.3891 80.1221 40.7344C80.4895 41.0796 80.6731 41.4947 80.6731 41.9796C80.6731 42.4645 80.4895 42.8796 80.1221 43.2249C79.7621 43.5702 79.3287 43.7428 78.8218 43.7428ZM100.567 46.564L94.3072 63.4907H91.6624L85.403 46.564H88.2242L92.8967 60.0525H93.073L97.7455 46.564H100.567ZM112.352 63.8434C110.721 63.8434 109.314 63.4834 108.131 62.7634C106.956 62.0361 106.049 61.0222 105.409 59.7219C104.778 58.4142 104.462 56.8934 104.462 55.1596C104.462 53.4258 104.778 51.8976 105.409 50.5752C106.049 49.2455 106.938 48.2096 108.076 47.4676C109.222 46.7182 110.56 46.3436 112.088 46.3436C112.969 46.3436 113.84 46.4905 114.699 46.7844C115.559 47.0782 116.341 47.5558 117.047 48.217C117.752 48.8708 118.314 49.7377 118.733 50.8177C119.151 51.8976 119.361 53.2274 119.361 54.8069V55.9089H106.313V53.6609H116.716C116.716 52.7058 116.525 51.8536 116.143 51.1042C115.768 50.3548 115.232 49.7634 114.534 49.33C113.843 48.8965 113.028 48.6798 112.088 48.6798C111.052 48.6798 110.155 48.9369 109.399 49.4512C108.649 49.9581 108.073 50.6193 107.669 51.4348C107.265 52.2503 107.062 53.1245 107.062 54.0576V55.5563C107.062 56.8346 107.283 57.9183 107.724 58.8072C108.172 59.6888 108.793 60.361 109.586 60.8239C110.38 61.2794 111.302 61.5071 112.352 61.5071C113.035 61.5071 113.652 61.4116 114.203 61.2206C114.762 61.0222 115.243 60.7284 115.647 60.339C116.051 59.9423 116.363 59.45 116.584 58.8623L119.096 59.5676C118.832 60.4198 118.387 61.1692 117.763 61.8157C117.138 62.4548 116.367 62.9544 115.449 63.3144C114.53 63.667 113.498 63.8434 112.352 63.8434ZM137.169 50.3548L134.833 51.016C134.686 50.6267 134.469 50.2483 134.182 49.881C133.903 49.5063 133.521 49.1977 133.036 48.9553C132.551 48.7129 131.931 48.5916 131.174 48.5916C130.138 48.5916 129.275 48.8304 128.584 49.3079C127.901 49.7781 127.559 50.3769 127.559 51.1042C127.559 51.7507 127.794 52.2613 128.265 52.636C128.735 53.0107 129.469 53.3229 130.469 53.5727L132.981 54.1898C134.495 54.5571 135.622 55.1192 136.364 55.8759C137.106 56.6252 137.477 57.5913 137.477 58.7741C137.477 59.7439 137.198 60.6108 136.64 61.3749C136.089 62.1389 135.317 62.7414 134.326 63.1822C133.334 63.623 132.18 63.8434 130.865 63.8434C129.139 63.8434 127.71 63.4687 126.579 62.7193C125.447 61.97 124.731 60.8753 124.43 59.4354L126.898 58.8182C127.133 59.7292 127.578 60.4125 128.232 60.868C128.893 61.3234 129.756 61.5512 130.821 61.5512C132.033 61.5512 132.996 61.2941 133.708 60.7798C134.428 60.2582 134.788 59.6337 134.788 58.9064C134.788 58.3187 134.583 57.8264 134.171 57.4297C133.76 57.0256 133.128 56.7244 132.276 56.5261L129.455 55.8649C127.905 55.4975 126.766 54.9282 126.039 54.1568C125.319 53.378 124.959 52.4046 124.959 51.2364C124.959 50.2814 125.227 49.4365 125.763 48.7018C126.307 47.9672 127.045 47.3905 127.978 46.9717C128.918 46.5529 129.984 46.3436 131.174 46.3436C132.849 46.3436 134.164 46.7109 135.119 47.4456C136.081 48.1802 136.765 49.15 137.169 50.3548Z" fill="black"/>
</svg>
