<svg width="190" height="220" viewBox="0 0 190 220" fill="none" xmlns="http://www.w3.org/2000/svg">
<path d="M75.5209 110.139C74.6934 109.932 72.1657 108.548 71.2634 108.071C63.609 104.03 55.0013 97.6679 49.52 90.9407C41.0164 80.504 38.0649 67.1207 39.6256 53.856C41.055 41.5787 47.2697 30.3611 56.9202 22.6385C68.8401 13.2498 83.8766 10.0365 98.8159 11.0264C106.686 11.5478 112.095 12.8483 119.211 16.3282C121.139 17.2557 123.024 18.2722 124.857 19.3741C127.029 20.6954 130.967 24.0369 133.355 24.2818C136.662 24.6212 140.264 10.5152 142.884 10.8514C144.014 12.0636 147.094 24.8366 147.795 27.5629L152.108 43.8815C153.328 48.4682 154.505 53.0661 155.639 57.6745C155.963 58.986 157.51 63.9007 156.891 64.7309C155.361 64.2861 152.636 56.7698 151.757 54.9952C144.634 40.6048 134.173 25.7237 119.478 18.3974C99.6023 8.48754 69.242 10.0756 58.3625 32.2669C53.4371 42.3133 52.7968 55.7289 56.294 66.3197C59.2995 75.4371 65.3587 82.327 72.8926 87.9953C74.5904 89.2726 77.6792 91.7558 79.5315 92.6264C81.3385 93.6511 85.1239 95.6593 86.6151 96.8559C86.4737 97.5042 86.2173 98.3071 86.4233 98.9105C87.0823 98.8758 87.3451 97.9115 87.5768 97.35C88.6257 97.5569 90.1878 97.7911 90.9135 98.6077L91.0805 98.6383C92.2589 99.3626 94.6493 100.25 95.9971 100.808L103.834 104.116L103.859 104.193C103.239 108.568 100.774 115.687 99.6537 120.33L99.6014 120.511C98.5519 120.358 84.7803 114.644 84.1141 114.172L84.0225 114.055C82.7969 113.787 76.4932 110.875 75.5903 110.138L75.5209 110.139Z" fill="#F4F4F3"/>
<path d="M90.9135 98.6077L91.0805 98.6383C92.2589 99.3627 94.6493 100.25 95.9971 100.808L103.834 104.116L103.859 104.193C103.239 108.568 100.774 115.687 99.6537 120.33L99.6014 120.511C98.5519 120.358 84.7803 114.644 84.1141 114.172L84.0225 114.055C84.2709 112.54 89.9338 99.689 90.9135 98.6077Z" fill="#F4F4F3"/>
<path d="M121.211 112.005C122.606 112.396 125.829 114.242 127.208 115.119C136.253 120.866 144.596 127.406 149.96 136.899C156.063 147.7 156.947 160.448 153.91 172.312C151.015 183.623 143.402 193.119 133.284 198.938C120.384 206.358 101.937 206.822 87.7585 202.966C84.6442 202.12 80.167 200.123 77.2637 198.552C75.9395 197.841 74.652 197.062 73.4064 196.221C71.4767 194.906 65.4064 189.963 63.5904 190.521C60.9056 192.948 58.1198 204.627 55.3813 205.432C54.9156 205.367 54.7168 205.372 54.4014 204.983C53.8594 204.313 53.5648 202.953 53.3442 202.118C52.1594 197.639 42.3436 155.753 42.6633 154.077C42.6836 153.971 42.6978 153.928 42.7259 153.833L42.9936 153.689C44.2616 154.363 46.5736 160.359 47.2996 161.873C57.3208 182.778 74.3748 200.867 98.6298 203.14C105.421 203.777 111.39 203.816 118.173 201.745C126.285 199.294 133.096 193.729 137.115 186.27C141.753 177.513 142.075 164.66 139.22 155.315C136.461 146.284 131.042 140.178 123.837 134.354C121.217 132.237 118.376 129.97 115.376 128.373C117.41 124.921 121.865 116.05 121.211 112.005Z" fill="#F4F4F3"/>
<path d="M87.1202 57.8504C86.1195 57.6751 85.1037 57.5215 84.106 57.3365C82.586 57.0548 80.3019 57.2027 80.095 55.2843C81.0879 53.1101 88.9916 52.9481 91.3152 51.3567C92.437 50.5881 95.521 48.6987 96.7601 49.2101C97.151 49.874 97.1032 50.7106 97.0323 51.4531C96.4152 57.9137 86.3793 94.7702 87.181 96.9632L87.4868 97.0351C88.7374 95.7167 90.4374 92.1913 91.4401 90.4959C95.4281 83.7532 100.984 75.5245 109.503 74.6612C114.01 74.2044 117.134 78.5682 116.802 82.7146C116.141 90.9793 113.049 99.1237 111.202 107.224L111.105 107.226C110.379 106.617 104.825 104.266 103.859 104.193L103.834 104.116C104.355 103.693 108.835 85.8565 109.124 83.2666C109.276 81.906 108.171 80.6245 107.259 79.739C104.105 80.2268 100.758 83.0518 98.9282 85.5251C97.1902 87.8741 91.4954 96.0239 91.0805 98.6383L90.9135 98.6077C90.1878 97.7911 88.6257 97.5569 87.5768 97.35C87.3451 97.9115 87.0823 98.8758 86.4233 98.9105C86.2173 98.3071 86.4737 97.5042 86.6151 96.8559C85.1239 95.6593 81.3386 93.6511 79.5315 92.6264C80.7773 88.2213 81.8379 82.6354 82.9053 78.0461C83.62 74.9272 84.3548 71.8132 85.11 68.7042C85.8494 65.6573 87.2447 60.8225 87.1202 57.8504Z" fill="#F4F4F3"/>
<path d="M103.859 104.193C104.825 104.266 110.379 106.617 111.105 107.226L111.202 107.224C115.48 108.798 117.558 110.284 121.211 112.005C121.865 116.05 117.41 124.921 115.376 128.373L115.203 128.368C112.942 133.451 104.497 136.571 100.589 131.544C98.0274 128.248 99.1566 124.194 99.6014 120.511L99.6537 120.33C100.774 115.687 103.239 108.568 103.859 104.193Z" fill="#F4F4F3"/>
<path d="M99.6014 120.511L99.6537 120.33C99.6864 120.377 99.9424 120.742 99.9424 120.742C101.176 121.023 106.01 123.685 106.787 123.727L106.882 123.98L111.468 126.23C111.577 126.229 111.929 126.232 112.011 126.211C112.42 126.945 114.184 127.539 115.203 128.368C112.942 133.451 104.497 136.571 100.589 131.544C98.0274 128.248 99.1566 124.194 99.6014 120.511Z" fill="#F4F4F3"/>
<path d="M75.5209 110.139L75.5903 110.138C76.4932 110.875 82.797 113.787 84.0225 114.055L84.1142 114.172C82.6281 115.548 79.6378 129.951 78.2058 132.271C77.3573 133.646 71.9707 133.238 70.8585 132.503C70.2683 131.418 72.1896 124.46 72.5409 122.978L75.5209 110.139Z" fill="#F4F4F3"/>
</svg>
